<?xml version="1.0" encoding="UTF-8"?>
<svg version="1.1" xmlns="http://www.w3.org/2000/svg" width="994" height="1032">
    <path fill="#361F8B" transform="translate(483,0)" d="M0 0 C4.55739014 1.3543329 8.33684724 3.1986235 12.41015625 5.640625 C13.31099945 6.17866257 13.31099945 6.17866257 14.2300415 6.72756958 C16.17841984 7.89484863 18.12081122 9.07163153 20.0625 10.25 C20.72962006 10.65261047 21.39674011 11.05522095 22.08407593 11.47003174 C33.9564243 18.63887887 45.59318818 26.10800745 57 34 C57.73428223 34.50692383 58.46856445 35.01384766 59.22509766 35.53613281 C64.18684585 38.97350867 69.10362744 42.47026337 74 46 C74.76022461 46.54624023 75.52044922 47.09248047 76.30371094 47.65527344 C87.25936286 55.54892647 97.82653068 63.79430957 108.16943359 72.47363281 C110.69163203 74.57669824 113.25322091 76.62982497 115.8125 78.6875 C120.71184423 82.68590099 125.35499121 86.91807573 129.98046875 91.2265625 C132.188758 93.27762435 134.44827341 95.25712161 136.73144531 97.22436523 C140.74691571 100.73304481 144.55305045 104.40784785 148.31640625 108.18359375 C148.97656235 108.84279312 149.63671844 109.50199249 150.31687927 110.1811676 C151.70035506 111.56396835 153.08259083 112.94801076 154.46362305 114.33325195 C156.55731669 116.43230343 158.65629874 118.5259594 160.75585938 120.61914062 C162.10969571 121.97363786 163.46322175 123.32844531 164.81640625 124.68359375 C165.43326797 125.29843124 166.0501297 125.91326874 166.6856842 126.54673767 C170.9863974 130.87026207 175.02479453 135.37694566 179 140 C179.845625 140.96421875 180.69125 141.9284375 181.5625 142.921875 C203.26459182 168.10186616 221.75412117 195.95866497 236 226 C236.32564941 226.67256836 236.65129883 227.34513672 236.98681641 228.03808594 C241.48810975 237.38304306 245.12601696 246.8779622 248.3125 256.75 C248.63798828 257.75474365 248.96347656 258.7594873 249.29882812 259.79467773 C253.17052119 272.16739333 255.45916788 284.5356796 256.625 297.4375 C256.68626068 298.1076413 256.74752136 298.77778259 256.81063843 299.4682312 C264.03940195 380.00005721 247.07409543 457.70755411 226 535 C227.32 535.33 228.64 535.66 230 536 C243.71964808 484.38027738 257.35653984 432.38494071 262 379 C262.06912598 378.22914063 262.13825195 377.45828125 262.20947266 376.6640625 C262.67750513 371.11188834 262.88311267 365.56981713 263 360 C263.02723145 358.75557129 263.05446289 357.51114258 263.08251953 356.22900391 C263.55235261 332.28789048 262.2045198 308.79062368 259.41796875 285.01171875 C257.1267648 264.51590163 260.44511961 238.01336733 273 221 C274.58253272 219.51587688 276.21059108 218.07918035 277.875 216.6875 C298.49968668 199.22629909 301.12113169 163.43682925 303.32080078 138.33984375 C303.94979817 130.56459875 304.49913807 122.78449141 305 115 C308.33009684 116.39252909 309.89023601 117.83535402 311.8828125 120.82421875 C312.40496338 121.59749512 312.92711426 122.37077148 313.46508789 123.16748047 C314.01285889 123.99908691 314.56062988 124.83069336 315.125 125.6875 C315.98822876 126.97744873 315.98822876 126.97744873 316.86889648 128.29345703 C318.03869775 130.04304744 319.20498381 131.79499347 320.36767578 133.54931641 C321.77708869 135.66533298 323.20614427 137.76453089 324.65234375 139.85546875 C339.95614849 162.08883627 352.91010772 185.69222238 356.1875 212.8125 C356.27177246 213.49908691 356.35604492 214.18567383 356.44287109 214.89306641 C358.09478198 230.49842844 356.28243296 245.75721426 354.4375 261.25 C354.30406189 262.38738617 354.17062378 263.52477234 354.03314209 264.69662476 C347.43901665 320.63254505 336.97119199 376.23304921 320 430 C319.78837219 430.67117859 319.57674438 431.34235718 319.35870361 432.03387451 C307.534861 469.43999778 293.03520542 506.05815227 275.03955078 540.95605469 C273.84459131 543.30556166 272.68493379 545.67092367 271.52734375 548.0390625 C264.84935305 561.6601114 257.58974688 574.86818629 250 588 C249.15864502 589.46590576 249.15864502 589.46590576 248.30029297 590.96142578 C234.99128034 614.14866646 220.71711406 636.68472791 206 659 C205.51128418 659.74137207 205.02256836 660.48274414 204.51904297 661.24658203 C200.87433582 666.76637967 197.21607661 672.27409335 193.42578125 677.6953125 C193.00796387 678.29327637 192.59014648 678.89124023 192.15966797 679.50732422 C191.01587616 681.13824431 189.86559477 682.76460774 188.71484375 684.390625 C186.87511084 686.94674835 186.87511084 686.94674835 186 690 C189.86592309 690.46390915 189.86592309 690.46390915 191.48535156 688.56079102 C191.9490918 687.88201904 192.41283203 687.20324707 192.890625 686.50390625 C193.426875 685.73062988 193.963125 684.95735352 194.515625 684.16064453 C195.08796875 683.30325684 195.6603125 682.44586914 196.25 681.5625 C196.8584375 680.67159668 197.466875 679.78069336 198.09375 678.86279297 C204.95422187 668.74115676 211.51174466 658.42006704 218.04492188 648.08544922 C219.92100955 645.12466051 221.80936354 642.17216441 223.703125 639.22265625 C231.36338356 627.28034346 238.79958309 615.22511486 246 603 C246.45971191 602.22092285 246.91942383 601.4418457 247.39306641 600.63916016 C254.8828135 587.91535781 262.03633922 575.01855532 269 562 C269.54527344 560.98470215 270.09054687 559.9694043 270.65234375 558.92333984 C308.70674272 487.7910554 333.39269677 411.32349481 348.25 332.1875 C348.41842407 331.29108795 348.58684814 330.3946759 348.76037598 329.47109985 C350.52504992 319.99836013 352.12471119 310.53395189 353.328125 300.97265625 C353.43054504 300.18316086 353.53296509 299.39366547 353.63848877 298.58024597 C354.11462261 294.89526166 354.5564097 291.21349251 354.92675781 287.51635742 C356.22640488 276.92661605 356.22640488 276.92661605 360.76953125 272.78125 C364.07012307 270.42614411 367.48716338 268.41586953 371.1875 266.75 C372.17105469 266.29109375 373.15460938 265.8321875 374.16796875 265.359375 C384.30096553 261.44168399 395.01636731 260.44221561 405.75 259.5625 C438.16627199 256.61330671 464.81851243 244.63894472 490 224 C492.25785185 235.04979009 493.72500725 246.18405149 495.0625 257.375 C495.14431519 258.0427948 495.22613037 258.7105896 495.3104248 259.39862061 C498.07004279 282.05504273 499.33946365 304.67712572 499.26074219 327.4987793 C499.24997345 331.19661725 499.26074781 334.89397294 499.2734375 338.59179688 C499.28563262 358.4577361 498.13541825 378.14702807 495.25 397.8125 C494.99730347 399.54342896 494.99730347 399.54342896 494.73950195 401.30932617 C487.33778681 449.88370001 470.03207963 496.5315058 442 537 C441.55930176 537.64437012 441.11860352 538.28874023 440.66455078 538.95263672 C433.93644794 548.77935786 426.87147518 558.06481195 419 567 C418.36449219 567.73476563 417.72898437 568.46953125 417.07421875 569.2265625 C412.45933982 574.55223887 407.7350148 579.78122207 403 585 C402.52336914 585.52851562 402.04673828 586.05703125 401.55566406 586.6015625 C396.31129068 592.40988331 391.14099187 598.10304638 385.125 603.12890625 C382.28691253 605.627884 379.65508922 608.30919209 377 611 C372.49342156 615.55031815 367.88162913 619.85144828 363 624 C361.92329828 624.93875147 360.84790151 625.87900065 359.7734375 626.8203125 C347.56764629 637.49791233 335.10942015 647.85488042 322.31054688 657.81469727 C317.61615129 661.48068835 313.02249708 665.26096665 308.4375 669.0625 C302.44029818 674.03034636 296.36806589 678.86162148 290.171875 683.578125 C284.98955267 687.53507062 279.87818403 691.58173192 274.75732422 695.61767578 C273.02979098 696.97656619 271.29874535 698.33083709 269.56640625 699.68359375 C262.63611767 705.1003144 255.77842354 710.59731491 248.96582031 716.16137695 C244.64422987 719.68454886 240.27759553 723.14135901 235.875 726.5625 C230.46339492 730.77656181 225.22889768 735.16544345 220.04516602 739.65600586 C216.51708582 742.71082519 212.94518188 745.69408621 209.3125 748.625 C204.57022513 752.47461137 200.05071039 756.52712671 195.5546875 760.66015625 C193.37302185 762.65834848 191.16988691 764.62148889 188.9375 766.5625 C184.24132909 770.6539326 179.60036979 774.80100476 175 779 C174.47003418 779.48339844 173.94006836 779.96679688 173.39404297 780.46484375 C164.01183747 789.05694059 154.94179014 797.95308833 145.9375 806.9375 C145.39688934 807.47552246 144.85627869 808.01354492 144.29928589 808.56787109 C138.87350193 813.97313994 133.51632261 819.39289486 128.53637695 825.21850586 C125.99168056 828.16918909 123.29809403 830.97862758 120.625 833.8125 C115.95441984 838.80410746 111.50382523 843.90243787 107.23046875 849.2421875 C105.22019899 851.72773995 103.15771285 854.15879295 101.07055664 856.57983398 C95.37203651 863.2037978 90.09395252 870.08236875 84.8984375 877.10546875 C83.12047388 879.50753628 81.32249235 881.88805097 79.4765625 884.23828125 C68.03742677 898.80559487 57.88189356 914.34624508 48 930 C47.39784668 930.95261719 46.79569336 931.90523437 46.17529297 932.88671875 C36.48313432 948.2783012 27.46120734 963.9019974 19 980 C17.86217838 982.14203291 16.72415421 984.28395825 15.5859375 986.42578125 C9.24368047 998.42630867 3.28572203 1010.49631315 -2 1023 C-2.66 1023 -3.32 1023 -4 1023 C7.0240547 957.47240212 36.85200551 892.60820696 62.375 831.6875 C72.56413054 807.26046369 81.20112869 782.57997436 88 757 C88.17360046 756.34684814 88.34720093 755.69369629 88.52606201 755.02075195 C107.80693481 682.06367126 114.18595427 606.28847574 113 531 C112.99033203 530.32374573 112.98066406 529.64749146 112.97070312 528.95074463 C111.56004125 431.94129077 96.61734637 335.14377135 28.42236328 82.16113281 C27.21640857 78.64135671 26.02818296 75.11587744 24.8453064 71.58828735 C18.54275549 52.80280283 11.81248742 34.20988458 4.72338867 15.70605469 C4.40853012 14.87926208 4.09367157 14.05246948 3.76927185 13.20062256 C3.17736255 11.64709266 2.58135512 10.09511592 1.98060608 8.54498291 C0.84277341 5.55317892 0 3.22996555 0 0 Z M83 138 C83.79049748 143.03377962 85.53832016 147.711612 87.2109375 152.50390625 C87.88013523 154.44169791 88.54898446 156.37960995 89.2175293 158.31762695 C89.56939301 159.33490875 89.92125671 160.35219055 90.28378296 161.40029907 C107.88304507 212.40060504 122.19346932 264.12210526 133 317 C133.17146545 317.83412415 133.34293091 318.66824829 133.51959229 319.52764893 C143.32378099 367.30114099 150.08156069 415.61661304 153.6875 464.25 C153.74852905 465.06870575 153.80955811 465.8874115 153.87243652 466.73092651 C155.6088214 490.37617441 156.20741859 513.98106032 156.1875 537.6875 C156.18709969 538.68534389 156.18709969 538.68534389 156.18669128 539.70334625 C156.16425545 584.42148677 153.26473966 628.82969152 146 673 C145.88783142 673.68350525 145.77566284 674.3670105 145.66009521 675.07122803 C142.15166573 696.33184394 137.71020694 717.23618134 132.28857422 738.09277344 C132.07791321 738.9053511 131.8672522 739.71792877 131.65020752 740.55513 C131.2573379 742.06401732 130.86064014 743.57191588 130.45916748 745.07853699 C129.33183323 749.38471245 128.54846764 753.59249108 128 758 C130.92568387 754.53821624 132.5581195 750.69427184 134.2578125 746.54296875 C134.7140802 745.44727066 134.7140802 745.44727066 135.17956543 744.32943726 C136.16760328 741.95131525 137.14682735 739.56969514 138.125 737.1875 C138.8089587 735.53046667 139.49304152 733.87348456 140.17724609 732.21655273 C141.84021177 728.18200754 143.49391576 724.14375792 145.14208984 720.10314941 C145.88362537 718.28529007 146.62717259 716.46825157 147.37109375 714.65136719 C179.79143081 635.10146608 200.87674567 550.61449844 208 465 C208.14465698 463.47995361 208.14465698 463.47995361 208.29223633 461.92919922 C209.25856966 450.73763084 209.18607626 439.52625084 209.18530273 428.30078125 C209.18746946 424.79935168 209.20562305 421.2982483 209.22460938 417.796875 C209.27884991 396.6059748 208.08704055 375.56570721 204.75 354.625 C204.64362213 353.94509003 204.53724426 353.26518005 204.42764282 352.56466675 C193.02126696 279.88969788 163.94318183 215.06795492 111.875 162.625 C110.96878906 161.70936279 110.06257812 160.79372559 109.12890625 159.8503418 C101.02450351 151.78478976 92.4180251 144.48797284 83 138 Z M453 291 C448.32038865 294.9850869 443.65505817 298.98626541 439 303 C437.75089844 304.07314453 437.75089844 304.07314453 436.4765625 305.16796875 C405.05012491 332.79015336 378.33745405 366.51184941 375.35931396 409.74053955 C375.12891829 413.53767133 374.91866259 417.33551863 374.7210083 421.13449097 C372.97724542 454.03332733 368.95538376 486.14473219 358.76953125 517.60546875 C358.02983244 519.90717115 357.32667392 522.21773086 356.625 524.53125 C345.15739427 560.90512221 324.39511353 594.65371121 298 622 C301.44868813 622 301.89471057 621.56512796 304.44140625 619.4375 C305.10213135 618.89222656 305.76285645 618.34695313 306.44360352 617.78515625 C307.49245728 616.90150391 307.49245728 616.90150391 308.5625 616 C310.02054825 614.79132268 311.47888059 613.58298799 312.9375 612.375 C313.64132812 611.78847656 314.34515625 611.20195313 315.0703125 610.59765625 C317.37107722 608.6927721 319.71164036 606.84256567 322.0625 605 C326.35370728 601.57430741 330.52888042 598.02193816 334.6875 594.4375 C335.61477905 593.64182617 335.61477905 593.64182617 336.56079102 592.83007812 C340.35354549 589.5398801 343.9403268 586.10757062 347.46606445 582.53344727 C349.15578904 580.84426056 350.91620532 579.2809662 352.75 577.75 C360.06723444 571.42734111 366.88351135 564.4885151 373.1484375 557.125 C375.40428493 554.53601055 377.76920514 552.06086457 380.125 549.5625 C386.99543137 542.15579924 392.99169119 534.10910377 399 526 C399.54978516 525.26442871 400.09957031 524.52885742 400.66601562 523.77099609 C408.78206018 512.8915862 416.20832896 501.75225429 423 490 C423.73283203 488.73978027 423.73283203 488.73978027 424.48046875 487.45410156 C454.45180612 435.50506756 470.65691944 371.73422438 459 312 C458.83419434 311.13987305 458.66838867 310.27974609 458.49755859 309.39355469 C456.91584726 299.74643022 456.91584726 299.74643022 453 291 Z M127 758 C128 761 128 761 128 761 Z M126 761 C127 763 127 763 127 763 Z "/>
    <path fill="#361F8B" transform="translate(460,96)" d="M0 0 C0.03169628 37.64720875 0.05110897 75.29442034 0.06185675 112.94164038 C0.06249743 115.17852243 0.06315655 117.41540448 0.06381607 119.65228653 C0.08884754 205.99064132 -0.01516433 292.32812519 -0.49097854 452.67496878 C-0.50003011 455.50942978 -0.50906694 458.34389083 -0.51810217 461.17835188 C-0.67101807 509.11892774 -0.83130723 557.05947705 -1 605 C-5.38735144 603.37244158 -8.46708399 601.14417396 -11.9375 598.0625 C-16.45285168 594.14605776 -21.02608312 590.34977123 -25.75 586.6875 C-31.76760822 582.00695047 -37.66480581 577.1929084 -43.53979492 572.33496094 C-48.3629194 568.34693191 -53.20256985 564.38059734 -58.0625 560.4375 C-59.04645752 559.63916748 -59.04645752 559.63916748 -60.05029297 558.82470703 C-61.37211273 557.75261853 -62.69405259 556.6806781 -64.01611328 555.60888672 C-67.34606442 552.90837256 -70.67288999 550.2040131 -74 547.5 C-78.11614588 544.15496475 -82.23290053 540.81068704 -86.3515625 537.46875 C-87.06699219 536.88802734 -87.78242188 536.30730469 -88.51953125 535.70898438 C-89.87864978 534.60580375 -91.23800749 533.50291769 -92.59765625 532.40039062 C-93.21769531 531.89701172 -93.83773438 531.39363281 -94.4765625 530.875 C-95.01361816 530.43929687 -95.55067383 530.00359375 -96.10400391 529.5546875 C-97.04252197 528.78511719 -97.04252197 528.78511719 -98 528 C-99.01491296 527.29472797 -100.02982592 526.58945595 -101.07549381 525.86281204 C-103.67947506 523.67332735 -103.96887615 523.14567915 -104.72447109 519.60902023 C-104.71246701 518.2993491 -104.70046293 516.98967796 -104.68809509 515.64031982 C-104.6896625 514.90599094 -104.6912299 514.17166206 -104.69284481 513.41508079 C-104.69085195 510.94854604 -104.64587802 508.48466059 -104.60131836 506.01855469 C-104.59133298 504.23900366 -104.58406624 502.45943562 -104.5792942 500.67986298 C-104.563087 496.81321156 -104.52770958 492.94736322 -104.47778511 489.08100128 C-104.39683682 482.80586437 -104.35705252 476.53085019 -104.32249451 470.25531006 C-104.2690507 461.20591963 -104.19698347 452.15683885 -104.1149292 443.10766602 C-103.99068313 429.12590941 -103.93667474 415.14433339 -103.89892578 401.16210938 C-103.89234065 398.81139367 -103.88573032 396.46067803 -103.87909508 394.10996246 C-103.87414125 392.35482936 -103.87414125 392.35482936 -103.86908734 390.56423903 C-103.86411356 388.80302237 -103.86411356 388.80302237 -103.85903931 387.00622559 C-103.85576405 385.8286961 -103.8524888 384.65116662 -103.8491143 383.43795443 C-103.81074638 370.00024587 -103.75264571 356.56262996 -103.69335938 343.125 C-103.68795112 341.89506412 -103.68254286 340.66512823 -103.67697072 339.39792156 C-103.63261058 329.31013472 -103.63261058 329.31013472 -103.6111654 324.45584345 C-103.57299681 315.77460634 -103.53723416 307.09336158 -103.50268555 298.41210938 C-103.49276808 295.9446589 -103.48284796 293.47720844 -103.47292519 291.009758 C-103.45805583 287.30764386 -103.44334458 283.60552941 -103.42909694 279.90341282 C-103.37709618 266.40511342 -103.31291723 252.90710292 -103.21426392 239.40905762 C-103.17985318 234.53247665 -103.14649492 229.65588943 -103.11376953 224.77929688 C-103.10548417 223.57266105 -103.09719882 222.36602522 -103.08866239 221.12282467 C-102.98813066 205.69957966 -103.01142998 190.28175523 -103.17885286 174.85938764 C-103.29447559 164.20791689 -103.36237055 153.55699999 -103.39804 142.90489459 C-103.42764762 135.355677 -103.52536458 127.81147783 -103.67499399 120.26373959 C-103.75021461 115.61479563 -103.758408 110.96748559 -103.74806714 106.31801891 C-103.75686016 104.17462497 -103.79314513 102.03112978 -103.85975146 99.88875294 C-104.32834971 84.18084027 -104.32834971 84.18084027 -100.4577477 78.89307499 C-96.73985209 75.0663752 -92.55029267 72.11797972 -88.03582585 69.30681467 C-84.84682563 67.25976715 -81.94282927 64.88058227 -79 62.5 C-77.85555177 61.60239784 -76.70987271 60.70636086 -75.5625 59.8125 C-71.67057072 56.75455557 -67.83457439 53.62936531 -64 50.5 C-58.47660315 45.99240027 -52.90815564 41.55157358 -47.2890625 37.1640625 C-42.12848405 33.12433367 -37.04903597 28.98855951 -31.97192383 24.84472656 C-27.0152004 20.80631528 -22.00689382 16.83970152 -16.96606445 12.90698242 C-12.24380439 9.2152576 -7.61612962 5.4201606 -3.01171875 1.58203125 C-1 0 -1 0 0 0 Z "/>
    <path fill="#361F8B" transform="translate(354,718)" d="M0 0 C3.01571923 1.50785961 4.77241757 2.49127707 7.1796875 4.6171875 C8.06732788 5.39461304 8.06732788 5.39461304 8.97290039 6.18774414 C9.60059326 6.74453857 10.22828613 7.30133301 10.875 7.875 C12.22493171 9.05896864 13.57519967 10.24255399 14.92578125 11.42578125 C15.60721191 12.02471191 16.28864258 12.62364258 16.99072266 13.24072266 C19.99491744 15.87112698 23.02709935 18.4682362 26.0625 21.0625 C27.22007524 22.05335836 28.37762731 23.04424379 29.53515625 24.03515625 C30.10637207 24.52387207 30.67758789 25.01258789 31.26611328 25.51611328 C34.17894046 28.00895524 37.08934061 30.50462766 40 33 C41.16665518 34.0000134 42.33332184 35.00001341 43.5 36 C64.5 54 64.5 54 66.25024414 55.50024414 C67.41605104 56.49948396 68.58190386 57.49867023 69.74780273 58.49780273 C72.67800398 61.00899461 75.60738291 63.52113393 78.53515625 66.03515625 C79.12619141 66.54240234 79.71722656 67.04964844 80.32617188 67.57226562 C81.41502776 68.50679548 82.50361189 69.44164215 83.59179688 70.37695312 C84.10935547 70.82103516 84.62691406 71.26511719 85.16015625 71.72265625 C85.68898407 72.20220261 86.21781189 72.68174896 86.76266479 73.17582703 C89.06990766 75.13959868 89.06990766 75.13959868 92.16641235 76.94380188 C96.66984287 79.87596917 100.97864492 82.95958016 102.74774742 88.22593117 C103.93981131 94.84547334 103.63592178 101.56205725 103.48828125 108.2578125 C103.48650197 110.51359823 103.49054194 112.76939489 103.49993896 115.02516174 C103.50953902 121.124331 103.44003188 127.22030709 103.35640335 133.31881332 C103.28280764 139.6991697 103.28320462 146.07948964 103.27709961 152.46020508 C103.25965874 162.47064894 103.20935647 172.48021007 103.12794602 182.49028265 C102.99473978 198.90904253 102.980465 215.32615251 103.01182961 231.74535275 C103.0229989 237.65624206 103.03209879 243.56713539 103.04174805 249.47802734 C103.0439117 250.74562645 103.04607534 252.01322556 103.04830456 253.31923676 C103.0692491 266.65426233 103.05583543 279.98920104 103.03515625 293.32421875 C103.03270527 294.93277331 103.03270527 294.93277331 103.03020477 296.57382393 C103.02117117 302.38255142 103.01111686 308.19127614 103 314 C99.47309307 311.92182047 96.33252701 309.74998317 93.1875 307.125 C92.2284375 306.3309375 91.269375 305.536875 90.28125 304.71875 C89.75789062 304.28433594 89.23453125 303.84992188 88.6953125 303.40234375 C85.54024069 300.79250324 82.364161 298.20848643 79.1875 295.625 C78.50389404 295.06893066 77.82028809 294.51286133 77.1159668 293.93994141 C72.21408698 289.9623237 67.26513048 286.04964507 62.28979492 282.16455078 C57.12436033 278.12127491 52.0402332 273.98171171 46.95874023 269.83374023 C42.69689091 266.36106518 38.39868899 262.94173694 34.0625 259.5625 C28.05785478 254.8799785 22.18339877 250.05012135 16.31884766 245.19384766 C11.35064851 241.08870595 6.32146872 237.07466183 1.23828125 233.11328125 C-3.91330455 229.09081014 -8.9784561 224.9665222 -14.04150391 220.83349609 C-18.30331048 217.36095102 -22.60140148 213.94166643 -26.9375 210.5625 C-32.94214522 205.8799785 -38.81660123 201.05012135 -44.68115234 196.19384766 C-49.64935149 192.08870595 -54.67853128 188.07466183 -59.76171875 184.11328125 C-64.91330455 180.09081014 -69.9784561 175.9665222 -75.04150391 171.83349609 C-79.30331048 168.36095102 -83.60140148 164.94166643 -87.9375 161.5625 C-93.94214522 156.8799785 -99.81660123 152.05012135 -105.68115234 147.19384766 C-110.64935149 143.08870595 -115.67853128 139.07466183 -120.76171875 135.11328125 C-125.90254869 131.09920855 -130.95941143 126.98620874 -136.00854492 122.85766602 C-139.33028554 120.14762217 -142.66818601 117.46478103 -146.0546875 114.8359375 C-146.69792969 114.33642578 -147.34117187 113.83691406 -148.00390625 113.32226562 C-149.21952284 112.38200268 -150.43811936 111.44557528 -151.66015625 110.51367188 C-154.30844363 108.46612427 -156.12260009 106.81609987 -158 104 C-147.023301 95.4345695 -136.00572343 86.92610313 -124.93701172 78.47998047 C-122.03646915 76.26381094 -119.14249694 74.03915532 -116.25 71.8125 C-115.2084375 71.01070312 -114.166875 70.20890625 -113.09375 69.3828125 C-112.0728125 68.59648438 -111.051875 67.81015625 -110 67 C-102.12328503 60.93333822 -94.23485288 54.88247018 -86.33520508 48.84570312 C-79.87941356 43.91104048 -73.43692819 38.95923337 -67 34 C-62.86995106 36.29786457 -59.36589386 39.10123889 -55.8125 42.1875 C-54.65584487 43.17943228 -53.49828469 44.17031013 -52.33984375 45.16015625 C-51.4888208 45.8874292 -51.4888208 45.8874292 -50.62060547 46.62939453 C-47.6131166 49.17293815 -44.52299785 51.61096324 -41.4375 54.05859375 C-37.96908645 56.82109621 -34.54569657 59.63745282 -31.1171875 62.44921875 C-27.42089372 65.47775585 -23.70996428 68.48823855 -20 71.5 C-1.37374055 86.62625945 -1.37374055 86.62625945 0 88 C0 58.96 0 29.92 0 0 Z "/>
    <path fill="#361F8B" transform="translate(1,90)" d="M0 0 C3.43859035 1.62557321 5.67745192 3.43948685 8.36621094 6.1550293 C9.64839508 7.44228157 9.64839508 7.44228157 10.95648193 8.75553894 C11.87318665 9.68570328 12.78989136 10.61586761 13.734375 11.57421875 C14.69546983 12.54159274 15.65708747 13.50844756 16.61920166 14.47480774 C19.15210378 17.0210013 21.67938891 19.57269121 24.20507812 22.1260376 C28.23139665 26.19546343 32.26429214 30.2583395 36.30072784 34.31772804 C37.69886256 35.72595009 39.09334653 37.13779378 40.48773193 38.54972839 C41.35513 39.42365738 42.22252808 40.29758636 43.11621094 41.19799805 C43.8680365 41.95807663 44.61986206 42.71815521 45.39447021 43.50126648 C50.29729944 48.20313702 55.07409701 52.54995576 60.90263367 56.08813477 C77.31682773 66.07753829 95.11777697 80.30764065 100.75080967 99.56702423 C107.89978876 130.27409693 104.44215475 164.40234707 103.22572029 195.60978603 C102.74836949 208.0452277 102.51011245 220.4809691 102.29937577 232.9233551 C101.96384426 252.53988111 101.49119138 272.14902449 100.9013288 291.75944519 C99.95565676 323.29562343 99.56270225 354.82634467 99.32421875 386.375 C99.30539569 388.78306105 99.28652926 391.19112177 99.26761818 393.59918213 C99.16561004 406.7327146 99.07563146 419.86628957 99 433 C97.87741632 432.0444276 96.75577055 431.08775329 95.63452148 430.13061523 C95.00980453 429.59798569 94.38508759 429.06535614 93.74143982 428.5165863 C91.108293 426.22342959 88.7091268 423.73186533 86.28515625 421.22265625 C84.36616292 419.35614821 82.41144296 417.62121294 80.38061523 415.88061523 C75.93445975 412.00052187 71.77230328 407.88253202 67.625 403.6875 C66.85623535 402.91494873 66.0874707 402.14239746 65.29541016 401.34643555 C62.0414017 398.07623964 58.79343734 394.8000651 55.54492188 391.52441406 C53.15704648 389.11834715 50.76609207 386.71536962 48.375 384.3125 C47.65393066 383.58313232 46.93286133 382.85376465 46.18994141 382.10229492 C44.14532062 380.04794688 42.08219785 378.01622091 40 376 C39.43675018 375.45403168 38.87350037 374.90806335 38.29318237 374.34555054 C35.14402547 371.44832183 31.94160677 368.92556449 28.31304932 366.66021729 C15.22135808 358.37694871 2.17227862 347.73120114 -2.02796936 332.1985321 C-6.42398506 310.13828089 -4.3006522 286.36937801 -3.43543172 264.0549441 C-3.0652728 254.32071539 -2.88990836 244.58572288 -2.73055029 234.84610927 C-2.46481459 218.70482214 -2.09986444 202.5682116 -1.66167307 186.43075955 C-0.99197204 161.61120096 -0.73675777 136.80047834 -0.6484375 111.97265625 C-0.64135478 110.09164423 -0.63425573 108.21063226 -0.62714005 106.32962036 C-0.60005473 99.00655042 -0.5750831 91.68347647 -0.55426979 84.36038589 C-0.50250669 66.51646039 -0.37583652 48.67329522 -0.23639727 30.82986903 C-0.20762802 27.12714901 -0.17982394 23.42442177 -0.15194702 19.72169495 C-0.10231032 13.14778867 -0.05162394 6.57389098 0 0 Z "/>
    <path fill="#361F8B" transform="translate(298,228)" d="M0 0 C0.37411756 27.17279412 0.65608034 54.34520116 0.82899475 81.52005386 C0.91142475 94.13859506 1.02375546 106.75553419 1.20703125 119.37304688 C1.36674024 130.37338144 1.46978436 141.37255573 1.50541592 152.37401748 C1.52623977 158.1975051 1.57499828 164.0176742 1.69168091 169.84009552 C1.80075154 175.32742663 1.83370184 180.81009253 1.8097229 186.29840469 C1.81410511 188.30609436 1.84568127 190.31394876 1.9072876 192.32069778 C2.33715519 207.05260522 2.33715519 207.05260522 -1.55373001 211.95941448 C-5.32161848 215.53340698 -9.52134704 218.23280579 -14.01042366 220.80968428 C-17.0259115 222.6137782 -19.68948338 224.74955184 -22.4375 226.9375 C-23.49213655 227.75435406 -24.54798477 228.56964804 -25.60546875 229.3828125 C-26.14864746 229.80208008 -26.69182617 230.22134766 -27.25146484 230.65332031 C-30.577653 233.21507037 -33.91428703 235.76317295 -37.25 238.3125 C-37.96663818 238.860271 -38.68327637 239.40804199 -39.42163086 239.97241211 C-40.88456214 241.09054807 -42.3475344 242.20863043 -43.81054688 243.32666016 C-46.66839488 245.51083614 -49.52563621 247.69580481 -52.3828125 249.88085938 C-54.51034249 251.50790952 -56.637984 253.13481377 -58.765625 254.76171875 C-61.54726307 256.88881618 -64.32848888 259.01645086 -67.109375 261.14453125 C-75.79579547 267.79095904 -84.49205802 274.4243357 -93.19335938 281.05126953 C-98.71622132 285.25815283 -104.23561088 289.46951668 -109.75 293.6875 C-110.43215576 294.20924805 -111.11431152 294.73099609 -111.81713867 295.26855469 C-115.34921187 297.97061377 -118.8801261 300.67417869 -122.41015625 303.37890625 C-128.92851576 308.37190638 -135.44869715 313.36276012 -142 318.3125 C-143.423125 319.38951172 -143.423125 319.38951172 -144.875 320.48828125 C-147 322 -147 322 -148 322 C-148.02336795 308.74147194 -148.04103786 295.48294894 -148.05181217 282.22440434 C-148.05698827 276.06520411 -148.06398769 269.90601818 -148.07543945 263.74682617 C-148.0864588 257.78156332 -148.09231631 251.81631405 -148.09487724 245.85104179 C-148.09669773 243.5969668 -148.10025065 241.34289239 -148.10573006 239.08882332 C-148.12288741 231.72493674 -148.08890879 224.36336982 -148 217 C-147.98896618 215.86195293 -147.97793236 214.72390587 -147.96656418 213.55137253 C-147.92324394 210.11066967 -147.84810788 206.67208696 -147.76342773 203.23217773 C-147.75232751 202.1807084 -147.74122728 201.12923906 -147.72979069 200.04590702 C-147.58619929 195.47653419 -147.48678131 192.76114514 -144.98451233 188.848526 C-142.76039442 186.93762876 -140.50925464 185.51728491 -137.93164062 184.12939453 C-133.84579161 181.74047422 -130.18865521 178.68688783 -126.4375 175.8125 C-124.71100502 174.52290394 -122.983125 173.2351602 -121.25390625 171.94921875 C-115.28875869 167.48673348 -109.41499624 162.91002604 -103.56030273 158.30395508 C-102.50564819 157.4767395 -102.50564819 157.4767395 -101.4296875 156.6328125 C-100.81335449 156.14699707 -100.19702148 155.66118164 -99.56201172 155.16064453 C-98 154 -98 154 -96 153 C-96.02966354 151.99125824 -96.05932709 150.98251648 -96.08988953 149.94320679 C-96.35838219 140.3823264 -96.52444509 130.82426138 -96.59327984 121.25980186 C-96.63187737 116.34304419 -96.70503464 111.43213625 -96.8605957 106.51757812 C-97.91131051 72.08577307 -97.91131051 72.08577307 -91.02392578 64.50878906 C-87.12541411 61.26913033 -82.93061222 59.03252341 -78.28872681 57.03497314 C-75.22929696 55.65148442 -72.79951472 53.75514718 -70.21875 51.625 C-69.43032715 51.02026855 -68.6419043 50.41553711 -67.82958984 49.79248047 C-67.0608252 49.20096191 -66.29206055 48.60944336 -65.5 48 C-56.52974805 41.13410803 -47.4683258 34.4022347 -38.35595703 27.7265625 C-34.33740421 24.78156711 -30.32458788 21.82879404 -26.3125 18.875 C-25.53390625 18.30233398 -24.7553125 17.72966797 -23.953125 17.13964844 C-20.04879665 14.26372149 -16.15706669 11.37258257 -12.28515625 8.453125 C-11.54160889 7.89254395 -10.79806152 7.33196289 -10.03198242 6.75439453 C-8.62286783 5.68994283 -7.2154024 4.62330347 -5.80981445 3.55419922 C-1.10852827 0 -1.10852827 0 0 0 Z "/>
    <path fill="#361F8B" transform="translate(303,475)" d="M0 0 C0.01103712 4.5029209 0.02100404 9.00584289 0.03008461 13.50876808 C0.03347577 15.17192426 0.03701542 16.83508015 0.04070091 18.4982357 C0.06231366 28.5378864 0.06479753 38.5770868 0.02636719 48.61669922 C0.01320597 52.33430841 0.00068127 56.05191946 -0.01171875 59.76953125 C-0.01509373 60.69127892 -0.0184687 61.61302658 -0.02194595 62.56270599 C-0.05928114 73.97643187 0.0797383 85.3550771 0.48046875 96.76171875 C1.41292106 128.30140565 1.41292106 128.30140565 -4.88671875 135.78515625 C-8.93873547 139.35734499 -13.31722653 141.58549161 -18.2578125 143.69824219 C-22.84730264 145.87694246 -26.5448786 149.08974185 -30.4375 152.3125 C-31.78663985 153.37583672 -33.13948718 154.43448719 -34.49609375 155.48828125 C-35.17784668 156.06288086 -35.85959961 156.63748047 -36.56201172 157.22949219 C-39 159 -39 159 -42.42626953 160.51269531 C-46.66028867 162.57668359 -49.83689471 164.70482986 -52 169 C-52.89259037 173.87194873 -52.87909159 178.697902 -52.75 183.6328125 C-52.73310183 184.32573332 -52.71620365 185.01865414 -52.69879341 185.73257256 C-52.5098501 192.3535537 -52.14822981 198.96302168 -51.70263672 205.57128906 C-50.13952465 229.8350933 -50.13952465 229.8350933 -54.99560547 236.90563965 C-59.85759325 241.84191966 -65.40036081 245.37005095 -71.48262024 248.6262207 C-74.88835585 250.48479172 -77.89051471 252.68387617 -81 255 C-82.09831826 255.77878794 -83.19838179 256.55512495 -84.30078125 257.328125 C-89.93718875 261.35480341 -95.40081088 265.6153866 -100.89916992 269.82714844 C-107.5957215 274.94956228 -114.3521407 279.9824193 -121.15332031 284.96484375 C-124.98801827 287.77554915 -128.809431 290.60077859 -132.6015625 293.46875 C-133.33270264 294.02143555 -134.06384277 294.57412109 -134.81713867 295.14355469 C-136.18921468 296.18307802 -137.55930767 297.22522618 -138.92700195 298.27050781 C-141.85818013 300.49045276 -144.68204783 302.42366871 -148 304 C-148.35082366 279.17409361 -148.61511824 254.34856007 -148.77718258 229.52067184 C-148.85444221 217.99177813 -148.95971597 206.46442686 -149.1315918 194.93652344 C-149.2813767 184.88546805 -149.37793629 174.83552981 -149.41132742 164.78338933 C-149.43084032 159.46297809 -149.47648828 154.14576188 -149.58595085 148.82637787 C-149.68829723 143.81186086 -149.71907772 138.80183161 -149.69661522 133.78636932 C-149.70071952 131.95284556 -149.7302683 130.11916145 -149.78808212 128.2865448 C-150.19148673 114.83154036 -150.19148673 114.83154036 -146.51593518 110.08249378 C-142.95277336 106.54462147 -138.98059205 103.73622229 -134.72941411 101.08665705 C-132.6037457 99.75101826 -130.6365118 98.25104437 -128.66796875 96.6953125 C-127.50942141 95.8363673 -126.34930207 94.97953773 -125.1875 94.125 C-119.39826625 89.82475487 -113.68109326 85.44205709 -108 81 C-101.73757672 76.10524774 -95.42168029 71.29414076 -89.04785156 66.5456543 C-83.1124639 62.11176964 -77.27077803 57.56200701 -71.43188477 53.00219727 C-66.36446829 49.04905308 -61.25510936 45.16453397 -56.1015625 41.32421875 C-50.10011372 36.82691141 -44.15848006 32.25069156 -38.20556641 27.68945312 C-36.04797338 26.03674738 -33.88944697 24.3852707 -31.73046875 22.734375 C-31.03083008 22.1993335 -30.33119141 21.66429199 -29.61035156 21.11303711 C-28.21038693 20.04298085 -26.81000032 18.97347643 -25.40917969 17.90454102 C-21.66870246 15.0487536 -17.9391618 12.17990389 -14.22265625 9.29296875 C-13.05283203 8.38804687 -13.05283203 8.38804687 -11.859375 7.46484375 C-10.35504435 6.30077836 -8.85362123 5.13294351 -7.35546875 3.9609375 C-6.68257812 3.44144531 -6.0096875 2.92195313 -5.31640625 2.38671875 C-4.72287354 1.92483154 -4.12934082 1.46294434 -3.51782227 0.98706055 C-2 0 -2 0 0 0 Z "/>
    <path fill="#361F8B" transform="translate(1,515)" d="M0 0 C6.11100167 5.05085009 11.6678447 10.55519794 17.24609375 16.18359375 C18.22553818 17.16745578 19.20528546 18.15101639 20.18531799 19.1342926 C23.79330283 22.75552953 27.39579068 26.38221867 30.99841309 30.00878906 C34.05171768 33.08196851 37.10716182 36.15299153 40.1653614 39.22130013 C41.58307557 40.64540421 42.99768981 42.07259219 44.41221619 43.49986267 C45.28995193 44.38090164 46.16768768 45.26194061 47.07202148 46.16967773 C47.83256332 46.93545639 48.59310516 47.70123505 49.37669373 48.49021912 C54.19500982 53.10001925 59.11554447 57.42938014 64.54040527 61.31604004 C80.79484505 73.00038795 98.92329888 87.20944169 102.50327015 107.96903038 C105.12289488 126.17391569 103.92016744 144.94626504 102.88107204 163.23456764 C102.42521948 171.40559789 102.21194494 179.57833976 102.01294422 187.75901127 C101.60006075 204.52089535 100.90168456 221.25711225 100 238 C96.99922964 236.5630921 94.93368254 235.16416019 92.609375 232.76953125 C91.66771484 231.81143555 91.66771484 231.81143555 90.70703125 230.83398438 C90.06121094 230.16689453 89.41539063 229.49980469 88.75 228.8125 C87.47659488 227.50393952 86.20054814 226.19794451 84.921875 224.89453125 C84.36081055 224.31550049 83.79974609 223.73646973 83.22167969 223.13989258 C81.33700621 221.32459993 79.41432148 219.62807405 77.42871094 217.92651367 C72.63342824 213.75603757 68.16718892 209.28116397 63.69447327 204.76963806 C62.18187668 203.24406023 60.66598798 201.72181914 59.14929199 200.20031738 C55.38604199 196.42383018 51.62831332 192.64186489 47.87042236 188.86004639 C44.68264332 185.65240132 41.49272958 182.44690705 38.30006409 179.24412537 C36.82029444 177.75796311 35.34361435 176.26878004 33.86706543 174.77941895 C28.02307016 168.914316 22.11136548 163.26087816 15.62084961 158.11300659 C-0.7644234 144.98462279 -0.7644234 144.98462279 -2.55273438 135.02978516 C-3.16127154 128.10220321 -2.6945671 121.23708391 -2.25 114.3125 C-2.15603568 111.71363918 -2.07233371 109.11439029 -1.99804688 106.51489258 C-1.85141837 101.57972266 -1.67030683 96.6478312 -1.45181274 91.71532345 C-0.96302284 80.54892198 -0.80579031 69.38679797 -0.703125 58.2109375 C-0.69446663 57.29429258 -0.68580826 56.37764767 -0.67688751 55.43322563 C-0.64239695 51.75215921 -0.60866646 48.07108805 -0.57674026 44.38999844 C-0.49155734 34.7113363 -0.35765917 25.03348506 -0.21875 15.35546875 C-0.19651732 13.78335622 -0.17431966 12.2112432 -0.15216064 10.63912964 C-0.10204365 7.09274432 -0.05125722 3.54636905 0 0 Z "/>
    <path fill="#361F8B" transform="translate(924,677)" d="M0 0 C0.68835938 0.13921875 1.37671875 0.2784375 2.0859375 0.421875 C19.89015473 4.16283893 37.06635927 10.24766024 53 19 C53.65709961 19.35271973 54.31419922 19.70543945 54.99121094 20.06884766 C66.76042466 26.39573342 66.76042466 26.39573342 70 31 C69.10619629 30.98952637 68.21239258 30.97905273 67.29150391 30.96826172 C11.39886669 30.40311154 -41.90556409 39.34019255 -95 57 C-96.37430176 57.44883545 -96.37430176 57.44883545 -97.77636719 57.90673828 C-125.59263068 67.0246475 -152.5684492 78.45160348 -179 91 C-180.14807129 91.54124512 -181.29614258 92.08249023 -182.47900391 92.64013672 C-197.66895402 99.8061508 -212.656005 107.25093386 -227.30224609 115.48486328 C-230.12909569 117.07250388 -232.96452645 118.64407479 -235.80078125 120.21484375 C-247.30523837 126.61659439 -258.5394436 133.33351388 -269.60595703 140.46337891 C-273.9499846 143.25160137 -278.32069966 145.99763962 -282.6875 148.75 C-284.29568008 149.7654553 -285.90376347 150.78106376 -287.51171875 151.796875 C-288.67447917 152.53125 -289.83723958 153.265625 -291 154 C-291 149.64791796 -288.33012282 147.58890917 -285.5625 144.5 C-284.44286007 143.22627068 -283.3243786 141.95152215 -282.20703125 140.67578125 C-281.6548291 140.04752441 -281.10262695 139.41926758 -280.53369141 138.77197266 C-278.53632884 136.46429079 -276.64338199 134.08088189 -274.75 131.6875 C-264.0754099 118.61772802 -251.90428187 106.8102334 -240 94.875 C-239.12387054 93.99485229 -239.12387054 93.99485229 -238.2300415 93.09692383 C-231.99780012 86.84300699 -225.75492777 80.69529271 -219 75 C-217.55367187 73.7315625 -217.55367187 73.7315625 -216.078125 72.4375 C-174.11874786 36.27361694 -124.96688903 8.52976845 -70 -1 C-69.27925293 -1.13132324 -68.55850586 -1.26264648 -67.81591797 -1.39794922 C-46.06642089 -5.22977314 -21.56606822 -4.41990091 0 0 Z "/>
    <path fill="#361F8B" transform="translate(733.9609375,806.8828125)" d="M0 0 C25.92576525 -0.54964176 48.90978744 5.55254997 72.0390625 17.1171875 C72.0390625 17.7771875 72.0390625 18.4371875 72.0390625 19.1171875 C71.462771 19.15682617 70.88647949 19.19646484 70.29272461 19.23730469 C6.67146631 23.77854407 -53.9581256 47.84492606 -107.9609375 81.1171875 C-109.00169434 81.7560791 -110.04245117 82.3949707 -111.11474609 83.05322266 C-122.190896 89.87021569 -133.26316976 96.71548874 -143.9609375 104.1171875 C-144.57388672 104.54 -145.18683594 104.9628125 -145.81835938 105.3984375 C-156.78495487 112.98340268 -167.4309264 120.9394154 -177.9609375 129.1171875 C-178.97285156 129.9009375 -179.98476563 130.6846875 -181.02734375 131.4921875 C-183.00836877 133.02988454 -184.98688124 134.57056223 -186.9609375 136.1171875 C-187.6209375 135.7871875 -188.2809375 135.4571875 -188.9609375 135.1171875 C-176.14848715 115.97932263 -162.59573974 97.46097762 -147.0546875 80.4296875 C-145.27189364 78.46063159 -143.54975303 76.45828548 -141.8359375 74.4296875 C-132.78074901 64.06886719 -122.82058443 54.55511793 -111.9609375 46.1171875 C-110.89544335 45.25207985 -109.83172632 44.38478014 -108.76953125 43.515625 C-77.57637784 18.17850227 -40.5697569 1.20028867 0 0 Z "/>
    <path fill="#361F8B" transform="translate(747,922)" d="M0 0 C0 0.33 0 0.66 0 1 C-0.91475098 1.06993164 -1.82950195 1.13986328 -2.77197266 1.21191406 C-20.70810477 2.61152191 -38.39197624 4.15629328 -56 8 C-57.36922607 8.28302979 -57.36922607 8.28302979 -58.76611328 8.57177734 C-87.72674767 14.60297888 -116.16977286 24.6182876 -143 37 C-143.63250671 37.2917511 -144.26501343 37.5835022 -144.91668701 37.88409424 C-162.87928461 46.19102465 -180.31356412 55.06476426 -197.24414062 65.34277344 C-199.97269443 66.98357989 -202.72250542 68.58007806 -205.484375 70.1640625 C-225.57702858 81.7271718 -244.66656934 94.81959685 -263 109 C-263.33 108.01 -263.66 107.02 -264 106 C-262.6598623 103.91909811 -261.31062188 102.09300285 -259.75 100.1875 C-259.0681665 99.33079712 -259.0681665 99.33079712 -258.37255859 98.45678711 C-257.40744003 97.24452819 -256.4384125 96.03537267 -255.46582031 94.82910156 C-254.05969488 93.07448935 -252.67799779 91.30380382 -251.3046875 89.5234375 C-235.7292564 69.36398068 -218.63870163 49.32733458 -199 33 C-198.4858252 32.56139648 -197.97165039 32.12279297 -197.44189453 31.67089844 C-146.45020906 -11.76804366 -61.5131326 -44.58291262 0 0 Z "/>
</svg>
